<svg width="30" height="30" viewBox="0 0 30 30" fill="none" xmlns="http://www.w3.org/2000/svg">
<rect width="30" height="30" rx="5" fill="white"/>
<path d="M19.247 10.761C20.37 11.8859 21.0007 13.4105 21.0007 15C21.0007 16.5895 20.37 18.1141 19.247 19.239" stroke="black" stroke-width="2" stroke-linecap="round" stroke-linejoin="round"/>
<path d="M22.075 7.93298C23.9479 9.80802 24.9999 12.3498 24.9999 15C24.9999 17.6502 23.9479 20.192 22.075 22.067" stroke="black" stroke-width="2" stroke-linecap="round" stroke-linejoin="round"/>
<path d="M7.92499 22.067C6.05211 20.192 5.00012 17.6502 5.00012 15C5.00012 12.3498 6.05211 9.80802 7.92499 7.93298" stroke="black" stroke-width="2" stroke-linecap="round" stroke-linejoin="round"/>
<path d="M10.753 19.239C9.63 18.1141 8.99927 16.5895 8.99927 15C8.99927 13.4105 9.63 11.8859 10.753 10.761" stroke="black" stroke-width="2" stroke-linecap="round" stroke-linejoin="round"/>
<path d="M15 17C16.1046 17 17 16.1046 17 15C17 13.8954 16.1046 13 15 13C13.8954 13 13 13.8954 13 15C13 16.1046 13.8954 17 15 17Z" stroke="black" stroke-width="2" stroke-linecap="round" stroke-linejoin="round"/>
</svg>
